<svg width="20" height="28" viewBox="0 0 20 28" fill="none" xmlns="http://www.w3.org/2000/svg">
<path fill-rule="evenodd" clip-rule="evenodd" d="M9.75754 24.0549L8.97535 23.7231L7.95241 24.2122L7.52105 23.3101L8.95073 22.6265L10.148 23.1342L9.75754 24.0549ZM5.90654 25.1904L5.47518 24.2882L3.4293 25.2664L3.86066 26.1686L5.90654 25.1904ZM1.81479 27.1468L1.38343 26.2446L1.07674 26.3913L1.07684 26.25L0.0768407 26.2493L0.076172 27.1845C0.075909 27.5525 0.459849 27.7947 0.791851 27.6359L1.81479 27.1468ZM0.078178 24.3788L1.07818 24.3795L1.07952 22.5091L0.0795154 22.5084L0.078178 24.3788ZM0.0808527 20.638L1.08085 20.6387L1.08219 18.7683L0.08219 18.7676L0.0808527 20.638ZM0.0835274 16.8971L1.08353 16.8979L1.08486 15.0274L0.0848647 15.0267L0.0835274 16.8971ZM0.0862021 13.1563L1.0862 13.157L1.08754 11.2866L0.0875394 11.2859L0.0862021 13.1563ZM0.0888767 9.41544L1.08888 9.41616L1.09021 7.54573L0.0902141 7.54502L0.0888767 9.41544ZM0.0915514 5.67459L1.09155 5.67531L1.09289 3.80488L0.0928888 3.80417L0.0915514 5.67459ZM0.0941798 1.99853L1.04287 1.99954L1.04294 1.93442L1.09423 1.93446L1.09489 0.999597L0.0948948 0.998535L0.0941798 1.99853ZM2.942 1.00156L2.94094 2.00156L4.83901 2.00357L4.84007 1.00358L2.942 1.00156ZM6.73814 1.00559L6.73708 2.00559L8.63515 2.00761L8.63621 1.00761L6.73814 1.00559ZM11.3219 24.7183L12.8863 25.3818L13.2767 24.4612L11.7124 23.7977L11.3219 24.7183ZM14.4507 26.0453L16.0151 26.7087L16.4055 25.7881L14.8411 25.1246L14.4507 26.0453ZM17.5794 27.3722L18.3616 27.7039C18.6912 27.8437 19.0566 27.602 19.0569 27.244L19.0575 26.3073L18.0575 26.3066L18.0574 26.4887L17.9699 26.4516L17.5794 27.3722ZM19.0589 24.4341L18.0589 24.4334L18.0602 22.5602L19.0602 22.5609L19.0589 24.4341ZM19.0615 20.6876L18.0615 20.6869L18.0629 18.8137L19.0629 18.8144L19.0615 20.6876ZM19.0642 16.9412L18.0642 16.9405L18.0656 15.0672L19.0656 15.0679L19.0642 16.9412ZM19.0669 13.1947L18.0669 13.194L18.0682 11.3208L19.0682 11.3215L19.0669 13.1947ZM19.0696 9.44825L19.0709 7.57501L18.0709 7.5743L18.0696 9.44753L19.0696 9.44825ZM19.0723 5.70178L18.0723 5.70106L18.0736 3.82783L19.0736 3.82855L19.0723 5.70178ZM19.0746 1.95531L19.0745 2.01869L18.1255 2.01769L18.1256 1.95463L18.0749 1.9546L18.0756 1.01798L18.1266 1.01802L19.0756 1.0187L19.0746 1.95531ZM16.2285 1.01567L16.2274 2.01567L14.3294 2.01365L14.3304 1.01366L16.2285 1.01567ZM12.4324 1.01164L10.5343 1.00962L10.5332 2.00962L12.4313 2.01164L12.4324 1.01164Z" fill="#BFC5E2"/>
</svg>
