<svg width="12" height="9" viewBox="0 0 12 9" fill="none" xmlns="http://www.w3.org/2000/svg">
<path d="M2.68027 8.34863C1.20112 8.34863 0 7.19769 0 5.76797C0 4.42294 1.07469 3.33257 2.4403 3.21142C2.16225 2.72681 1.65651 2.20576 0.79666 1.70937C0.556638 1.57591 0.404513 1.33361 0.404513 1.07948C0.404513 0.558427 0.96062 0.194971 1.46636 0.413142C2.93324 1.04304 5.37342 2.58152 5.37342 5.76795C5.37342 7.19766 4.17232 8.34863 2.68027 8.34863Z" fill="#BBBFE4"/>
<path d="M9.33184 8.34863C7.8398 8.34863 6.63867 7.19769 6.63867 5.76797C6.63867 4.42294 7.71336 3.33257 9.07897 3.21142C8.80092 2.72681 8.29518 2.20576 7.43533 1.70937C7.19531 1.57591 7.04318 1.33361 7.04318 1.07948C7.04318 0.558427 7.59929 0.194971 8.10503 0.413142C9.55902 1.04304 11.9993 2.56977 11.9993 5.76795C12.0122 7.19766 10.8111 8.34863 9.33184 8.34863Z" fill="#BBBFE4"/>
</svg>
