<svg width="24" height="24" viewBox="0 0 24 24" fill="none" xmlns="http://www.w3.org/2000/svg">
<path d="M5.91355 19.3772C8.34585 21.1777 11.4864 21.7175 14.3798 20.8327C17.2729 19.9488 19.575 17.7445 20.5844 14.8923C21.5939 12.0401 21.1908 8.87867 19.4982 6.37158C17.8054 3.86356 15.0237 2.30767 12.0009 2.17738C11.6595 2.16266 11.3195 2.16634 10.9822 2.18785C8.6227 2.33832 6.39938 3.36145 4.74888 5.0595H7.70167C8.26731 5.0595 8.72667 5.51886 8.72667 6.0845C8.72667 6.65152 8.26691 7.1095 7.70167 7.1095H1.61717V1.025C1.61717 0.459768 2.07515 0 2.64217 0C3.20781 0 3.66718 0.459361 3.66718 1.025V3.24663C5.80402 1.23778 8.63758 0.107496 11.5952 0.10925C14.6699 0.109315 17.6195 1.33101 19.7941 3.50555C21.9686 5.68006 23.1905 8.62954 23.1905 11.7044C23.1905 18.0196 17.9106 23.2997 11.5952 23.2997C8.51937 23.2997 5.57099 22.0778 3.39641 19.9032C1.22187 17.7288 0 14.7803 0 11.7044C0 11.1388 0.459362 10.6794 1.025 10.6794C1.59202 10.6794 2.05 11.1393 2.05 11.7045C2.04928 14.7303 3.48225 17.5767 5.91355 19.3772Z" fill="#797EB9"/>
</svg>
